# xmcd
#
# Track frame offsets:
#	150
#	31819
#	52720
#	73184
#	100153
#	118703
#	143604
#	171410
#	203836
#	217805
#	231216
#	253062
#	265088
#	322008
#
# Disc length: 4628 seconds
#
# Revision: 0
# Processed by: cddbd v1.5.2PL0 Copyright (c) Steve Scherf et al.
# Submitted via: EasyCDDAExtractor 9.0.0.1
#
DISCID=c512120e
DTITLE=Saxon - Sala Arena Madrid 07-11-04 Disc 2
DYEAR=2004
DGENRE=Hard Rock
TTITLE0=Crusader
TTITLE1=This Town Rocks
TTITLE2=Witchfinder General
TTITLE3=Dogs Of War
TTITLE4=Never Surrender
TTITLE5=Princess Of The Night
TTITLE6=Solid Ball Of Rock
TTITLE7=Strong Arm Of The Law
TTITLE8=20 000 Feet
TTITLE9=And The Bands Played On
TTITLE10=747
TTITLE11=Guitar Solo
TTITLE12=Wheels Of Steel
TTITLE13=Denim and Leather
EXTD=
EXTT0=
EXTT1=
EXTT2=
EXTT3=
EXTT4=
EXTT5=
EXTT6=
EXTT7=
EXTT8=
EXTT9=
EXTT10=
EXTT11=
EXTT12=
EXTT13=
PLAYORDER=
